<svg width="190" height="20" viewBox="0 0 190 20" fill="none" xmlns="http://www.w3.org/2000/svg">
  <g clip-path="url(#clip0_3_2418)">
    <mask id="mask0_3_2418" style="mask-type:luminance" maskUnits="userSpaceOnUse" x="0" y="1" width="28" height="18">
      <path d="M28 1.44006H0V18.4401H28V1.44006Z" fill="white"/>
    </mask>
    <g mask="url(#mask0_3_2418)">
      <path fill-rule="evenodd" clip-rule="evenodd" d="M22.4947 17.4279C23.9153 16.7378 25.1131 15.662 25.9512 14.3233C26.7892 12.9847 27.2336 11.4372 27.2337 9.85783V9.85583C27.2338 8.35132 26.8306 6.87427 26.0661 5.57848C25.3016 4.28269 24.2037 3.21554 22.8867 2.48812C21.5697 1.76071 20.0818 1.39964 18.5779 1.4425C17.074 1.48536 15.6091 1.93059 14.3357 2.73183C15.3932 3.59383 16.2457 4.68045 16.8311 5.91284C17.4165 7.14522 17.7202 8.49247 17.7202 9.85683C17.7202 11.2212 17.4165 12.5685 16.8311 13.8009C16.2457 15.0333 15.3932 16.1199 14.3357 16.9819C15.5459 17.7433 16.9302 18.1838 18.3579 18.2618C19.7856 18.3398 21.2087 18.0528 22.4947 17.4279ZM13.0247 16.9019C11.9956 16.0393 11.1679 14.9618 10.6 13.745C10.032 12.5283 9.73757 11.2019 9.73729 9.85903C9.737 8.51625 10.0309 7.18971 10.5983 5.97272C11.1658 4.75572 11.993 3.67782 13.0217 2.81483C11.7518 1.98441 10.2811 1.5127 8.7651 1.4496C7.24912 1.3865 5.74427 1.73435 4.40978 2.45636C3.07528 3.17837 1.96077 4.24769 1.18416 5.55117C0.407548 6.85464 -0.00227606 8.34381 -0.00195293 9.86111C-0.00162981 11.3784 0.408828 12.8674 1.18599 14.1706C1.96316 15.4737 3.07813 16.5426 4.41293 17.264C5.74773 17.9855 7.25273 18.3327 8.76868 18.2689C10.2846 18.2052 11.7552 17.7328 13.0247 16.9019Z" fill="white"/>
      <path fill-rule="evenodd" clip-rule="evenodd" d="M13.7305 15.9739C14.617 15.2202 15.3291 14.2829 15.8174 13.2268C16.3058 12.1706 16.5587 11.021 16.5587 9.85734C16.5587 8.69377 16.3058 7.54411 15.8174 6.48797C15.3291 5.43184 14.617 4.49449 13.7305 3.74084C12.8443 4.49458 12.1324 5.43191 11.6443 6.48793C11.1561 7.54396 10.9033 8.69345 10.9033 9.85684C10.9033 11.0203 11.1561 12.1698 11.6443 13.2258C12.1324 14.2818 12.8443 15.2201 13.7305 15.9739Z" fill="white"/>
    </g>
    <mask id="mask1_3_2418" style="mask-type:luminance" maskUnits="userSpaceOnUse" x="39" y="2" width="41" height="15">
      <path d="M80 2.44006H39V16.4401H80V2.44006Z" fill="white"/>
    </mask>
    <g mask="url(#mask1_3_2418)">
      <path fill-rule="evenodd" clip-rule="evenodd" d="M68.807 2.98016C67.8554 2.6182 66.8451 2.43512 65.827 2.44016C62.547 2.44016 60.238 4.17016 60.224 6.64216C60.197 8.46616 61.878 9.47917 63.134 10.0872C64.42 10.7092 64.857 11.1152 64.857 11.6692C64.843 12.5192 63.818 12.9122 62.862 12.9122C61.536 12.9122 60.826 12.7092 59.746 12.2362L59.308 12.0332L58.844 14.8842C59.623 15.2352 61.058 15.5462 62.548 15.5602C66.033 15.5602 68.302 13.8572 68.328 11.2232C68.342 9.77716 67.454 8.66917 65.541 7.76316C64.379 7.18317 63.667 6.79117 63.667 6.19617C63.681 5.65617 64.269 5.10216 65.58 5.10216C66.4309 5.07724 67.2767 5.24331 68.055 5.58816L68.355 5.72317L68.807 2.98016ZM56.767 15.3702H53.445L55.523 2.67016H58.843L56.767 15.3702ZM77.32 2.67016H74.75C73.958 2.67016 73.356 2.90016 73.015 3.72416L68.081 15.3712H71.566L72.263 13.4652H76.527C76.623 13.9112 76.924 15.3702 76.924 15.3702H80L77.32 2.67016ZM73.22 10.8712L74.546 7.31816C74.54 7.32817 74.584 7.21017 74.648 7.03316C74.744 6.77116 74.885 6.38316 74.983 6.10216L75.215 7.19617C75.215 7.19617 75.844 10.2362 75.98 10.8712H73.22ZM50.67 2.67116L47.42 11.3302L47.064 9.57316L45.903 3.73716C45.71 2.92716 45.122 2.69716 44.398 2.67016H39.055L39 2.92716C40.303 3.25716 41.469 3.73116 42.49 4.32217L45.45 15.3572H48.963L54.183 2.67016H50.671L50.67 2.67116Z" fill="white"/>
    </g>
    <mask id="mask2_3_2418" style="mask-type:luminance" maskUnits="userSpaceOnUse" x="91" y="0" width="46" height="19">
      <path d="M137 0.940063H91V18.9401H137V0.940063Z" fill="white"/>
    </mask>
    <g mask="url(#mask2_3_2418)">
      <mask id="mask3_3_2418" style="mask-type:luminance" maskUnits="userSpaceOnUse" x="91" y="0" width="46" height="19">
        <path d="M91 0.940063H137V18.9401H91V0.940063Z" fill="white"/>
      </mask>
      <g mask="url(#mask3_3_2418)">
        <path d="M112.757 9.73304V15.0101H111.06V1.98004H115.565C116.102 1.96875 116.636 2.0625 117.138 2.25604C117.638 2.45004 118.096 2.73904 118.482 3.10704C118.872 3.45404 119.184 3.87804 119.394 4.35204C119.604 4.82704 119.709 5.34004 119.701 5.85704C119.712 6.37805 119.609 6.89521 119.399 7.37204C119.187 7.85056 118.874 8.27741 118.482 8.62304C117.694 9.36304 116.722 9.73304 115.565 9.73304H112.757ZM112.757 3.58304V8.13304H115.607C115.918 8.1417 116.228 8.08635 116.517 7.97041C116.806 7.85447 117.068 7.68042 117.287 7.45904C117.503 7.25403 117.675 7.0071 117.793 6.7333C117.911 6.4595 117.971 6.16459 117.971 5.86654C117.971 5.5685 117.911 5.27359 117.793 4.99979C117.675 4.72599 117.503 4.47905 117.287 4.27404C117.07 4.04817 116.809 3.87003 116.52 3.75103C116.23 3.63204 115.919 3.57482 115.607 3.58304H112.757ZM123.614 5.80404C124.87 5.80404 125.861 6.13404 126.587 6.79604C127.314 7.45604 127.677 8.36304 127.677 9.51604V15.0101H126.05V13.7731H125.976C125.273 14.7921 124.338 15.3011 123.17 15.3011C122.173 15.3011 121.34 15.0111 120.668 14.4281C120.347 14.1618 120.089 13.8269 119.915 13.4481C119.741 13.0713 119.654 12.66 119.662 12.2451C119.662 11.3221 120.015 10.5881 120.723 10.044C121.431 9.49904 122.375 9.22604 123.557 9.22404C124.566 9.22404 125.397 9.40604 126.049 9.77004V9.38804C126.051 9.10415 125.989 8.82339 125.868 8.56675C125.747 8.31011 125.569 8.08424 125.348 7.90604C124.896 7.50578 124.311 7.28829 123.708 7.29604C122.759 7.29604 122.008 7.69004 121.455 8.47904L119.96 7.55004C120.783 6.38604 122.001 5.80404 123.614 5.80404ZM121.416 12.2811C121.414 12.4952 121.465 12.7065 121.563 12.8967C121.661 13.087 121.804 13.2504 121.98 13.3731C122.355 13.6631 122.822 13.8181 123.3 13.8091C124.014 13.8087 124.7 13.5283 125.21 13.0281C125.773 12.5061 126.054 11.8931 126.054 11.1901C125.524 10.7741 124.786 10.5671 123.839 10.5671C123.149 10.5671 122.573 10.7301 122.113 11.0581C121.647 11.3911 121.416 11.7951 121.416 12.2811ZM137.004 6.09504L131.332 18.9401H129.578L131.683 14.4451L127.953 6.09504H129.8L132.495 12.4991H132.532L135.154 6.09504H137.004ZM105.893 8.59604C105.893 8.08604 105.85 7.57704 105.762 7.07404H98.5977V9.95704H102.7C102.616 10.417 102.438 10.8571 102.178 11.2471C101.917 11.6391 101.578 11.9731 101.183 12.2321V14.1041H103.632C105.066 12.8011 105.893 10.8741 105.893 8.59604Z" fill="white"/>
        <path d="M98.5956 15.9121C100.646 15.9121 102.372 15.2481 103.631 14.1051L101.182 12.2331C100.501 12.6891 99.6216 12.9481 98.5956 12.9481C96.6146 12.9481 94.9326 11.6321 94.3306 9.85803H91.8096V11.7881C92.4456 13.0317 93.4151 14.0739 94.6096 14.7981C95.8116 15.5273 97.1897 15.9126 98.5956 15.9121Z" fill="white"/>
        <path d="M94.3318 9.85806C94.0139 8.92951 94.0139 7.92161 94.3318 6.99306V5.06506H91.8088C91.2778 6.10586 91.001 7.25765 91.001 8.42606C91.001 9.59447 91.2778 10.7463 91.8088 11.7871L94.3318 9.85806Z" fill="white"/>
        <path d="M98.5956 3.90316C99.6759 3.88466 100.721 4.28743 101.51 5.02616L103.679 2.88916C102.296 1.61373 100.477 0.916317 98.5956 0.940167C97.19 0.939801 95.8113 1.32512 94.6096 2.05416C93.4151 2.77829 92.4456 3.82048 91.8096 5.06416L94.3296 6.99316C94.9316 5.21916 96.6146 3.90316 98.5956 3.90316Z" fill="white"/>
      </g>
    </g>
    <mask id="mask4_3_2418" style="mask-type:luminance" maskUnits="userSpaceOnUse" x="148" y="0" width="42" height="19">
      <path d="M190 0.440063H148V18.4401H190V0.440063Z" fill="white"/>
    </mask>
    <g mask="url(#mask4_3_2418)">
      <path d="M155.938 2.76106C156.432 2.13606 156.768 1.29706 156.679 0.440063C155.955 0.476063 155.072 0.922064 154.561 1.54806C154.101 2.08306 153.695 2.95806 153.801 3.77806C154.614 3.85006 155.426 3.36806 155.938 2.76106ZM156.67 3.94006C155.952 3.89606 155.3 4.15606 154.772 4.36606C154.432 4.50106 154.144 4.61606 153.923 4.61606C153.68 4.61606 153.381 4.49606 153.044 4.36206C152.601 4.18606 152.094 3.98206 151.564 3.99206C150.348 4.01106 149.221 4.70506 148.604 5.80806C147.337 8.01606 148.27 11.2911 149.504 13.0891C150.102 13.9791 150.824 14.9591 151.774 14.9231C152.191 14.9071 152.49 14.7791 152.8 14.6471C153.158 14.4941 153.531 14.3351 154.117 14.3351C154.676 14.3351 155.031 14.4891 155.373 14.6371C155.699 14.7781 156.013 14.9141 156.476 14.9051C157.463 14.8871 158.079 14.0151 158.678 13.1251C159.329 12.1631 159.616 11.2331 159.658 11.0931L159.664 11.0781L159.64 11.0661C159.419 10.9641 157.761 10.1941 157.745 8.14006C157.728 6.41706 159.05 5.54306 159.267 5.40006C159.276 5.39362 159.285 5.38695 159.294 5.38006C158.45 4.11906 157.128 3.97606 156.67 3.94006ZM166.945 1.45706C169.51 1.45706 171.295 3.24406 171.295 5.84406C171.295 8.45406 169.473 10.2491 166.881 10.2491H164.041V14.8111H161.989V1.45706H166.945ZM164.04 8.51006H166.394C168.18 8.51006 169.197 7.53906 169.197 5.85406C169.197 4.17006 168.18 3.20806 166.403 3.20806H164.04V8.51006ZM175.412 9.16806C173.122 9.29806 171.831 10.3431 171.831 12.0461C171.831 13.7951 173.15 14.9801 175.037 14.9801C176.301 14.9801 177.519 14.2951 178.077 13.2121H178.124V14.8131H180.02V8.10306C180.02 6.15106 178.527 4.90206 176.19 4.90206C173.81 4.90206 172.325 6.19706 172.216 7.95606H174.084C174.258 7.08606 174.973 6.53106 176.118 6.53106C177.327 6.53106 178.05 7.17806 178.05 8.26106V9.01106L175.412 9.16806ZM178.05 10.3991V11.1671C178.05 12.4351 176.97 13.3971 175.586 13.3971C174.524 13.3971 173.828 12.8421 173.828 11.9911C173.828 11.1581 174.496 10.6311 175.678 10.5471L178.05 10.3991ZM181.81 16.7751V18.3951C181.956 18.4221 182.451 18.4411 182.616 18.4411C184.613 18.4411 185.566 17.6821 186.39 15.3221L190 5.07706H187.912L185.475 12.9991H185.438L183.001 5.07706H180.858L184.339 14.8221C184.339 14.8261 184.309 14.9261 184.274 15.0441C184.224 15.2111 184.164 15.4121 184.164 15.4241C183.863 16.4231 183.368 16.8111 182.452 16.8111C182.287 16.8111 181.957 16.8111 181.811 16.7741L181.81 16.7751Z" fill="white"/>
    </g>
  </g>
  <defs>
    <clipPath id="clip0_3_2418">
      <rect width="190" height="19" fill="white" transform="translate(0 0.440063)"/>
    </clipPath>
  </defs>
</svg>