<svg width="28" height="28" viewBox="0 0 28 28" fill="none" xmlns="http://www.w3.org/2000/svg">
<path id="Vector" fill-rule="evenodd" clip-rule="evenodd" d="M13.88 27.6401C21.3359 27.6401 27.38 21.596 27.38 14.1401C27.38 6.68429 21.3359 0.640137 13.88 0.640137C6.42416 0.640137 0.380005 6.68429 0.380005 14.1401C0.380005 21.596 6.42416 27.6401 13.88 27.6401ZM16.535 7.39014C16.5348 8.16821 16.8173 8.91986 17.33 9.50514C18.35 10.6826 19.76 10.6151 19.76 10.6151V12.9326C18.603 12.9346 17.4748 12.5725 16.535 11.8976V16.6151C16.535 18.9776 14.6225 20.8901 12.2675 20.8901C10.07 20.8901 8.00001 19.1126 8.00001 16.6151C8.00001 14.0501 10.265 12.0402 12.8525 12.3851V14.7551C11.57 14.3577 10.325 15.3252 10.325 16.6151C10.325 17.6951 11.21 18.5652 12.275 18.5652C12.7786 18.5651 13.2625 18.3696 13.6249 18.0199C13.9872 17.6701 14.1996 17.1934 14.2175 16.6901V7.39014H16.535Z" fill="#F6F5F5"/>
</svg>
